HIERARCHY
ROOT Hips
{
  OFFSET -4.35178 90.3298 111.633
  CHANNELS 6 Xposition Yposition Zposition Zrotation Xrotation Yrotation
  JOINT LeftUpLeg
  {
    OFFSET 0.103456 1.85784 10.5485
    CHANNELS 6 Xposition Yposition Zposition Zrotation Xrotation Yrotation
    JOINT LeftLeg
    {
      OFFSET 43.5 -4.2e-05 0
      CHANNELS 6 Xposition Yposition Zposition Zrotation Xrotation Yrotation
      JOINT LeftFoot
      {
        OFFSET 42.3722 1.9e-05 0
        CHANNELS 6 Xposition Yposition Zposition Zrotation Xrotation Yrotation
        JOINT LeftToe
        {
          OFFSET 17.3 0 0
          CHANNELS 6 Xposition Yposition Zposition Zrotation Xrotation Yrotation
          End Site
          {
            OFFSET 0 0 0
          }
        }
      }
    }
  }
  JOINT RightUpLeg
  {
    OFFSET 0.103456 1.85782 -10.5485
    CHANNELS 6 Xposition Yposition Zposition Zrotation Xrotation Yrotation
    JOINT RightLeg
    {
      OFFSET 43.5 -2.7e-05 0
      CHANNELS 6 Xposition Yposition Zposition Zrotation Xrotation Yrotation
      JOINT RightFoot
      {
        OFFSET 42.3723 0 0
        CHANNELS 6 Xposition Yposition Zposition Zrotation Xrotation Yrotation
        JOINT RightToe
        {
          OFFSET 17.3 0 1.7e-05
          CHANNELS 6 Xposition Yposition Zposition Zrotation Xrotation Yrotation
          End Site
          {
            OFFSET 0 0 0
          }
        }
      }
    }
  }
  JOINT Spine
  {
    OFFSET 6.90197 -2.60373 0
    CHANNELS 6 Xposition Yposition Zposition Zrotation Xrotation Yrotation
    JOINT Spine1
    {
      OFFSET 12.5881 0 0
      CHANNELS 6 Xposition Yposition Zposition Zrotation Xrotation Yrotation
      JOINT Spine2
      {
        OFFSET 12.3432 -1.8e-05 0
        CHANNELS 6 Xposition Yposition Zposition Zrotation Xrotation Yrotation
        JOINT Neck
        {
          OFFSET 25.8329 2.3e-05 0
          CHANNELS 6 Xposition Yposition Zposition Zrotation Xrotation Yrotation
          JOINT Head
          {
            OFFSET 11.7666 0 0
            CHANNELS 6 Xposition Yposition Zposition Zrotation Xrotation Yrotation
            End Site
            {
              OFFSET 0 0 0
            }
          }
        }
        JOINT LeftShoulder
        {
          OFFSET 19.7459 -1.48035 6.0001
          CHANNELS 6 Xposition Yposition Zposition Zrotation Xrotation Yrotation
          JOINT LeftArm
          {
            OFFSET 11.2841 1.8e-05 -2e-05
            CHANNELS 6 Xposition Yposition Zposition Zrotation Xrotation Yrotation
            JOINT LeftForeArm
            {
              OFFSET 33 -1.3e-05 1.9e-05
              CHANNELS 6 Xposition Yposition Zposition Zrotation Xrotation Yrotation
              JOINT LeftHand
              {
                OFFSET 25.2 3.2e-05 1.1e-05
                CHANNELS 6 Xposition Yposition Zposition Zrotation Xrotation Yrotation
                End Site
                {
                  OFFSET 0 0 0
                }
              }
            }
          }
        }
        JOINT RightShoulder
        {
          OFFSET 19.7461 -1.48036 -6.00008
          CHANNELS 6 Xposition Yposition Zposition Zrotation Xrotation Yrotation
          JOINT RightArm
          {
            OFFSET 11.2841 0 0
            CHANNELS 6 Xposition Yposition Zposition Zrotation Xrotation Yrotation
            JOINT RightForeArm
            {
              OFFSET 33.0001 1.6e-05 0
              CHANNELS 6 Xposition Yposition Zposition Zrotation Xrotation Yrotation
              JOINT RightHand
              {
                OFFSET 25.1998 0.000123 0.000432
                CHANNELS 6 Xposition Yposition Zposition Zrotation Xrotation Yrotation
                End Site
                {
                  OFFSET 0 0 0
                }
              }
            }
          }
        }
      }
    }
  }
}
MOTION
Frames:	7
Frame Time:	0.0333333
83.2802 84.7246 -108.099 72.9311 -53.5517 -11.8884 0.103456 1.85784 10.5485 -6.78039 22.5809 167.628 43.5 -4.2e-05 1e-05 -27.9295 -12.1597 -1.70033 42.3722 1.9e-05 0 78.7369 17.8276 2.91889 17.3 0 3e-06 21.4546 -1e-06 0.003093 0.103456 1.85782 -10.5485 7.91251 -7.16447 160.866 43.5 -2.7e-05 4e-06 -67.5379 2.54793 10.471 42.3723 0 1e-05 61.5543 -19.9117 9.99529 17.3 -6e-06 1.7e-05 21.4546 -1.9e-05 -0.003116 6.90197 -2.60373 -3e-06 9.13015 3.05742 -1.03761 12.5881 1e-05 8e-06 8.26531 6.01298 -2.5709 12.3432 -1.8e-05 -5e-06 7.88043 5.96437 -2.92004 25.8329 2.3e-05 7e-06 6.55309 13.8176 -14.2387 11.7666 -8e-06 -6e-06 -13.7855 8.64305 19.3327 19.7459 -1.48035 6.0001 -176.241 3.53952 -86.0493 11.2841 1.8e-05 -2e-05 -17.9611 -6.82387 64.4165 33 -1.3e-05 1.9e-05 -26.0249 9.08248 -5.14498 25.2 3.2e-05 1.1e-05 -14.7636 29.0901 5.53872 19.7461 -1.48036 -6.00008 -175.03 -1.12334 67.2682 11.2841 0 -1e-06 -13.0168 -0.255322 -32.5817 33.0001 1.6e-05 -1e-06 -60.5488 -0.618482 19.8566 25.1998 0.000123 0.000432 4.33398 -18.0092 13.4227 
81.3186 85.2499 -110.897 73.7417 -50.8166 -10.2268 0.103456 1.85784 10.5485 -2.89778 22.0565 166.49 43.5 -4.2e-05 1e-05 -26.6939 -11.8399 -1.95398 42.3722 1.9e-05 0 80.4689 18.298 0.449054 17.3 3.55271e-15 3e-06 21.4546 -1e-06 0.003093 0.103456 1.85782 -10.5485 1.94801 -6.02914 159.185 43.5 -2.7e-05 4e-06 -74.5261 2.18303 8.76704 42.3723 7.10543e-15 1e-05 64.5945 -14.6844 6.64858 17.3 -6e-06 1.7e-05 21.4546 -1.9e-05 -0.003116 6.90197 -2.60373 -3e-06 9.1909 3.05646 -0.907912 12.5881 1e-05 8e-06 8.3801 6.03366 -2.31486 12.3432 -1.8e-05 -5e-06 7.99483 6.00261 -2.66565 25.8329 2.3e-05 7e-06 6.71309 13.4081 -14.1633 11.7666 -8e-06 -6e-06 -12.0831 9.10946 17.9928 19.7459 -1.48035 6.0001 -176.717 3.33154 -86.4755 11.2841 1.8e-05 -2e-05 -18.5596 -7.25214 65.4735 33 -1.3e-05 1.9e-05 -27.4549 8.28465 -4.53373 25.2 3.2e-05 1.1e-05 -15.1649 29.1385 5.32379 19.7461 -1.48036 -6.00008 -174.488 -1.56797 66.8299 11.2841 -7.10543e-15 -1e-06 -14.2434 -4.13865 -32.6352 33.0001 1.6e-05 -1e-06 -57.3614 -2.05167 19.2286 25.1998 0.000123 0.000432 3.9147 -19.5507 14.2328 
79.4465 85.8802 -113.535 75.1145 -47.2173 -8.19409 0.103456 1.85784 10.5485 0.795917 20.9084 165.597 43.5 -4.2e-05 1e-05 -24.6657 -11.0678 -2.16743 42.3722 1.9e-05 0 81.2658 18.512 -2.11965 17.3 -3.55271e-15 3e-06 21.4546 -1e-06 0.003093 0.103456 1.85782 -10.5485 -4.08845 -5.18451 158.153 43.5 -2.7e-05 4e-06 -78.5429 2.00485 7.74681 42.3723 7.10543e-15 1e-05 66.3175 -7.80259 -0.905186 17.3 -6e-06 1.7e-05 21.4546 -1.9e-05 -0.003116 6.90197 -2.60373 -3e-06 9.12463 2.93607 -0.675832 12.5881 1e-05 8e-06 8.23357 5.8339 -1.82725 12.3432 -1.8e-05 -5e-06 7.84953 5.83122 -2.16683 25.8329 2.3e-05 7e-06 6.84674 12.9252 -13.882 11.7666 -8e-06 -6e-06 -9.77734 9.54297 16.7162 19.7459 -1.48035 6.0001 -177.184 3.14811 -86.7094 11.2841 1.8e-05 -2e-05 -19.1422 -7.5478 66.5303 33 -1.3e-05 1.9e-05 -29.1063 7.43383 -3.96921 25.2 3.2e-05 1.1e-05 -16.2023 28.7706 5.37985 19.7461 -1.48036 -6.00008 -173.975 -1.79373 66.4333 11.2841 1.42109e-14 -1e-06 -15.4093 -8.27884 -32.8128 33.0001 1.6e-05 -1e-06 -53.822 -2.02438 18.1121 25.1998 0.000123 0.000432 3.68491 -19.9835 13.977 
77.6982 86.4681 -116.138 76.8739 -43.0235 -6.18972 0.103456 1.85784 10.5485 3.29158 18.8887 165.564 43.5 -4.2e-05 1e-05 -23.1496 -10.0226 -2.46877 42.3722 1.9e-05 2.84217e-14 81.7196 18.2341 -4.46908 17.3 3.55271e-15 3e-06 21.4546 -1e-06 0.003093 0.103456 1.85782 -10.5485 -9.50389 -4.41458 158.178 43.5 -2.7e-05 4e-06 -79.0116 2.43934 7.00441 42.3723 -1.42109e-14 1e-05 67.6239 0.964996 -9.36289 17.3 -6e-06 1.7e-05 21.4546 -1.9e-05 -0.003116 6.90197 -2.60373 -3e-06 8.97564 2.76898 -0.370446 12.5881 1e-05 8e-06 7.9182 5.55207 -1.18182 12.3432 -1.8e-05 -5e-06 7.53564 5.58512 -1.50557 25.8329 2.3e-05 7e-06 6.95447 12.2886 -13.3955 11.7666 -8e-06 -6e-06 -7.99215 9.52075 15.736 19.7459 -1.48035 6.0001 -177.66 2.97824 -87.0218 11.2841 1.8e-05 -2e-05 -19.8959 -7.84722 67.6898 33 -1.3e-05 1.9e-05 -31.1763 6.89414 -3.4835 25.2 3.2e-05 1.1e-05 -17.7345 28.8999 5.11501 19.7461 -1.48036 -6.00008 -173.1 -2.08645 65.9043 11.2841 0 -1e-06 -16.2333 -11.9385 -33.3913 33.0001 1.6e-05 -1e-06 -49.9796 -2.00341 17.1527 25.1998 0.000123 0.000432 3.32332 -20.2548 13.7188 
75.8746 86.8401 -118.814 78.5823 -38.6915 -4.40713 0.103456 1.85784 10.5485 5.37387 16.4528 165.685 43.5 -4.2e-05 1e-05 -21.6363 -9.20358 -2.3473 42.3722 1.9e-05 0 82.6765 18.0924 -6.45921 17.3 0 3e-06 21.4546 -1e-06 0.003093 0.103456 1.85782 -10.5485 -13.6979 -3.41073 158.503 43.5 -2.7e-05 4e-06 -75.6742 2.85077 6.45566 42.3723 0 1e-05 70.3142 7.89333 -16.3321 17.3 -6e-06 1.7e-05 21.4546 -1.9e-05 -0.003116 6.90197 -2.60373 -3e-06 8.82586 2.58354 -0.143471 12.5881 1e-05 8e-06 7.60682 5.21881 -0.690772 12.3432 -1.8e-05 -5e-06 7.22624 5.27815 -0.995265 25.8329 2.3e-05 7e-06 7.1033 11.763 -12.9285 11.7666 -8e-06 -6e-06 -7.87701 9.05135 15.4636 19.7459 -1.48035 6.0001 -178.073 2.44591 -87.783 11.2841 1.8e-05 -2e-05 -20.4068 -8.28968 68.7758 33 -1.3e-05 1.9e-05 -33.8799 6.37413 -2.81495 25.2 3.2e-05 1.1e-05 -19.2184 29.1364 4.91132 19.7461 -1.48036 -6.00008 -171.803 -2.71525 65.1746 11.2841 1.42109e-14 -1e-06 -16.1577 -14.1005 -34.4886 33.0001 1.6e-05 -1e-06 -47.182 -1.33836 16.4395 25.1998 0.000123 0.000432 3.70549 -19.9506 13.1991 
74.1462 87.1178 -121.466 80.1943 -34.8393 -3.09874 0.103456 1.85784 10.5485 6.83665 13.9879 166.375 43.5 -4.2e-05 1e-05 -20.3144 -8.70886 -2.38482 42.3722 1.9e-05 0 83.6676 17.7513 -7.77301 17.3 3.55271e-15 3e-06 21.4546 -1e-06 0.003093 0.103456 1.85782 -10.5485 -17.5217 -2.50244 159.853 43.5 -2.7e-05 4e-06 -70.0851 4.86623 4.64368 42.3723 -7.10543e-15 1e-05 75.4307 10.654 -20.3757 17.3 -6e-06 1.7e-05 21.4546 -1.9e-05 -0.003116 6.90197 -2.60373 -3e-06 8.66725 2.48594 0.0931487 12.5881 1e-05 8e-06 7.27802 5.06064 -0.195534 12.3432 -1.8e-05 -5e-06 6.89754 5.14596 -0.4915 25.8329 2.3e-05 7e-06 7.28066 11.0254 -12.3544 11.7666 -8e-06 -6e-06 -8.32901 8.38188 15.0122 19.7459 -1.48035 6.0001 -178.562 1.7954 -88.1689 11.2841 1.8e-05 -2e-05 -20.9308 -8.53875 69.4445 33 -1.3e-05 1.9e-05 -36.6763 5.66055 -2.33584 25.2 3.2e-05 1.1e-05 -20.555 29.0123 4.90248 19.7461 -1.48036 -6.00008 -170.413 -3.5721 64.2943 11.2841 -1.42109e-14 -1e-06 -15.8124 -15.4657 -35.7948 33.0001 1.6e-05 -1e-06 -44.7227 -0.290987 16.0069 25.1998 0.000123 0.000432 3.9345 -19.2571 12.5492 
72.3623 87.2884 -124.119 81.8354 -31.1317 -1.98728 0.103456 1.85784 10.5485 7.41179 11.662 167.475 43.5 -4.2e-05 1e-05 -20.1984 -8.29441 -2.38177 42.3722 1.9e-05 -2.84217e-14 84.7843 17.9167 -8.58543 17.3 -3.55271e-15 3e-06 21.4546 -1e-06 0.003093 0.103456 1.85782 -10.5485 -20.0032 -1.69618 161.358 43.5 -2.7e-05 4e-06 -61.2632 7.8367 2.72429 42.3723 0 1e-05 79.7958 12.5741 -22.2828 17.3 -6e-06 1.7e-05 21.4546 -1.9e-05 -0.003116 6.90197 -2.60373 -3e-06 8.47543 2.39714 0.289297 12.5881 1e-05 8e-06 6.88518 4.91127 0.218308 12.3432 -1.8e-05 -5e-06 6.50481 5.01647 -0.0696113 25.8329 2.3e-05 7e-06 7.56441 10.4577 -11.9353 11.7666 -8e-06 -6e-06 -8.92203 8.01068 14.6487 19.7459 -1.48035 6.0001 -179.046 0.96087 -88.5757 11.2841 1.8e-05 -2e-05 -21.4744 -8.63597 69.9285 33 -1.3e-05 1.9e-05 -39.1277 4.91848 -1.94617 25.2 3.2e-05 1.1e-05 -21.7299 28.901 4.86721 19.7461 -1.48036 -6.00008 -169.081 -4.45267 63.35 11.2841 0 -1e-06 -15.3985 -16.3418 -37.2173 33.0001 1.6e-05 -1e-06 -42.7732 1.12282 15.6427 25.1998 0.000123 0.000432 4.10004 -18.2045 11.6498 
